<svg xmlns="http://www.w3.org/2000/svg" xml:space="preserve" viewBox="0 0 35.7 35.7">
  <path d="M11.56 10.77a6.29 6.29 0 1 1 12.58 0 6.29 6.29 0 0 1-12.58 0zm24.1 11.84-.87-5.27a2.56 2.56 0 0 0-1.9-1.99 4.71 4.71 0 0 1-6.27 0 2.56 2.56 0 0 0-1.9 1.99l-.02.12a4.15 4.15 0 0 0-1.86-1.05 7.5 7.5 0 0 1-9.98 0 4.2 4.2 0 0 0-1.87 1.05l-.02-.12a2.56 2.56 0 0 0-1.9-1.99 4.71 4.71 0 0 1-6.27 0 2.56 2.56 0 0 0-1.9 1.99L.04 22.6a1.71 1.71 0 0 0 1.74 2.05H9l-.55 3.29c-.3 1.8.95 3.27 2.78 3.27h13.26a2.72 2.72 0 0 0 2.77-3.27l-.55-3.29h7.23c1.14 0 1.92-.92 1.74-2.05zm-5.9-6.85a3.95 3.95 0 1 0 0-7.9 3.95 3.95 0 0 0 0 7.9zm-23.82 0a3.95 3.95 0 1 0 0-7.9 3.95 3.95 0 0 0 0 7.9z"/>
</svg>
